<?xml version="1.0" encoding="utf-8"?>
<!-- Generator: Adobe Illustrator 27.3.1, SVG Export Plug-In . SVG Version: 6.00 Build 0)  -->
<svg version="1.1" id="Layer_1" xmlns="http://www.w3.org/2000/svg" xmlns:xlink="http://www.w3.org/1999/xlink" x="0px" y="0px"
	 viewBox="0 0 8044 1800" style="enable-background:new 0 0 8044 1800;" xml:space="preserve">
<style type="text/css">
	.st0{fill:#FFFFFF;}
</style>
<g>
	<path class="st0" d="M819.6,0H0.4v1800h427.2v-586.6h391.9c207.3,0,369.9-54.3,487.9-163c118-108.7,176.9-256.6,176.9-443.7
		c0-187-58.9-334.9-176.9-443.7C1189.5,54.3,1026.8,0,819.6,0z M987.6,788.8c-46.4,42.1-111.7,63.2-196,63.2H427.6V361.5h364.1
		c82.6,0,147.5,21.1,194.7,63.3c47.1,42.1,70.8,102.8,70.8,182C1057.2,685.9,1033.9,746.6,987.6,788.8z"/>
	<path class="st0" d="M3470.5,251.6C3367,83.9,3030.6,0,2782.8,0h-455.2c-241,0-295,83.9-481.9,251.6
		c-189.8,167.8-339.5,383.8-322.1,648.4c17.5,264.5,14.4,480.7,117.8,648.4c103,167.9,438.4,251.6,686.1,251.6h455.2
		c241.1,0,295.6-83.8,485.5-251.6c187.8-167.7,335.7-383.9,318.4-648.4C3569.5,635.5,3572.5,419.4,3470.5,251.6z M1650.1,1529.1
		c-97.6-162.9-94.4-372.6-96-629.1c-1.6-256.4,141.4-466.1,323.7-629.1c121.2-112.1,201.9-185.6,308.6-220.6
		c-67.2,41.5-126,108.5-214.3,201.3c-169.2,167.8-332.4,383.8-357.2,648.4c-24.8,264.5-41.3,480.7,82.7,648.4
		c72,92.8,204.1,159.9,358.1,201.3C1878.7,1714.7,1721.4,1641.2,1650.1,1529.1z M1705.8,1529.1c-115.5-162.9-98.6-372.6-60.8-629.1
		c37.9-256.4,194.7-466.1,359-629.1c110.4-112.1,176.6-185.6,278.6-220.6c-62,41.5-109.4,108.5-188.7,201.3
		c-150,167.8-324.8,383.8-388.2,648.4c-63.4,264.5-91.5,480.7,51.7,648.4c81.1,92.8,224.6,159.9,383.8,201.3
		C1959.8,1714.7,1788,1641.2,1705.8,1529.1z M1765.9,1529.1c-132.2-162.9-103.5-372.6-29.8-629.1
		c73.8-256.4,242.4-466.1,389.9-629.1c100.3-112.1,153.5-185.6,251.6-220.6c-57.7,41.5-95,108.5-165.9,201.3
		c-132.3,167.8-316.8,383.8-415,648.4c-98.2,264.5-136,480.7,24.9,648.4c89.4,92.8,243.1,159.9,406.5,201.3
		C2042.9,1714.7,1858.2,1641.2,1765.9,1529.1z M1830.2,1529.1c-147.8-162.9-109.1-372.6-3.1-629.1
		c106-256.4,284.6-466.1,416.6-629.1c90.8-112.1,132.7-185.6,227.8-220.6c-54.4,41.5-82.8,108.5-146.1,201.3
		c-116,167.8-308.4,383.8-437.6,648.4c-129.2,264.5-174.9,480.7,2.3,648.4c97.1,92.8,259.5,159.9,426.3,201.3
		C2128,1714.7,1932,1641.2,1830.2,1529.1z M1898.9,1529.1c-162.1-162.9-115.3-372.6,19.3-629.1c134.6-256.4,321.3-466.1,439-629.1
		c82.1-112.1,114.3-185.6,207-220.6c-51.9,41.5-72.9,108.5-129.2,201.3c-101.1,167.8-299.6,383.8-456,648.4
		c-156.4,264.5-208.2,480.7-16.2,648.4c104.1,92.8,274,159.9,443.2,201.3C2215.2,1714.7,2009.4,1641.2,1898.9,1529.1z
		 M2467.6,1743.9c-184.5-36.9-383.1-108.3-495.7-214.8c-175.3-162.9-122.3-372.6,37.3-629.1c159.6-256.4,352.6-466.1,457.1-629.1
		c70.4-106.5,96-177.9,176.6-214.8C2827.4,93,3026,164.5,3138.6,270.9c175.2,162.9,122.2,372.6-37.4,629.1
		c-159.6,256.5-352.6,466.2-456.9,629.1C2573.9,1635.6,2548.2,1707.1,2467.6,1743.9z M2547.3,1749.3c52-41.5,73.8-108.3,131.3-200.9
		c99.5-167.7,296.4-383.9,453-648.4c156.5-264.5,208.7-480.6,18.3-648.4c-104.4-92.6-274.2-159.4-443.5-200.9
		c190.3,35.1,395.2,108.5,505.3,220.2c162,162.9,115.3,372.6-19.4,629.1c-134.7,256.5-321.3,466.2-438.9,629.1
		C2671.5,1640.8,2639.3,1714.2,2547.3,1749.3z M2639.9,1749.3c54.5-41.5,83.8-108.3,148.2-200.9
		c114.3-167.7,305.1-383.9,434.4-648.4c129.3-264.5,175.3-480.6-0.3-648.4c-97.3-92.6-259.7-159.4-426.5-200.9
		c188,35.1,383.1,108.5,484.5,220.2c147.7,162.9,109,372.6,3,629.1c-106,256.5-284.6,466.2-416.5,629.1
		C2776.3,1640.8,2734.3,1714.2,2639.9,1749.3z M2733.8,1749.3c57.9-41.5,96-108.3,168.1-200.9c130.5-167.7,313.4-383.9,411.7-648.4
		c98.3-264.5,136.4-480.6-23-648.4c-89.7-92.6-243.2-159.4-406.6-200.9c184.8,35.1,368.7,108.5,460.7,220.2
		c132.1,162.9,103.5,372.6,29.7,629.1c-73.8,256.5-242.3,466.2-389.8,629.1C2884.6,1640.8,2831.3,1714.2,2733.8,1749.3z
		 M3019.9,1548.4c148.2-167.7,321.2-383.9,384.8-648.4c63.6-264.5,91.8-480.6-49.9-648.4c-81.3-92.6-224.7-159.4-383.8-200.9
		c180.9,35.1,351.8,108.5,433.8,220.2c115.4,162.9,98.6,372.6,60.7,629.1c-37.9,256.5-194.6,466.2-358.8,629.1
		c-110,111.7-176.2,185.1-277.6,220.2C2891.1,1707.8,2939.3,1641,3019.9,1548.4z M3232.9,1529.1
		c-120.8,111.7-201.5,185.1-307.6,220.2c67.4-41.5,127-108.3,216.7-200.9c167.3-167.7,328.6-383.9,353.7-648.4
		c25-264.5,41.6-480.6-81-648.4c-72.2-92.6-204.2-159.4-358.1-200.9c176.3,35.1,332.7,108.5,403.8,220.2
		c97.5,162.9,94.4,372.6,96,629.1C3558,1156.5,3415,1366.2,3232.9,1529.1z"/>
	<path class="st0" d="M5117.7,1352.5c-5-114.6-25.7-203.1-61.9-265.4c-36.3-62.3-100.8-108.7-193.4-139.1
		c193.7-77.6,290.7-219.9,290.7-427.2c0-160.2-56.1-287-168.1-380.5C4872.8,46.8,4711.4,0,4500.8,0h-852v1800H4076v-662.4h348.9
		c91,0,157.1,18.9,198.4,56.9c41.3,38,63.6,106.6,67,206l7.6,202.2c1.6,81,16,146.6,43,197.2h439.9c-32-48.9-48.9-113.8-50.5-194.6
		L5117.7,1352.5z M4644.9,754.6c-45.5,41.3-109.6,61.9-192.2,61.9H4076V341.3h369.2c178.6,0,268,78.4,268,235.1
		C4713.2,653.9,4690.4,713.4,4644.9,754.6z"/>
	<polygon class="st0" points="5196.9,381.7 5748.1,381.7 5748.1,1800 6177.9,1800 6177.9,381.7 6731.5,381.7 6731.5,0 5196.9,0 	"/>
	<polygon class="st0" points="7219.4,1418.3 7219.4,0 6792.2,0 6792.2,1800 8043.6,1800 8043.6,1418.3 	"/>
</g>
</svg>
